<?xml version="1.0" encoding="iso-8859-1"?>
<!-- Generator: Adobe Illustrator 19.0.0, SVG Export Plug-In . SVG Version: 6.00 Build 0)  -->
<svg xmlns="http://www.w3.org/2000/svg" xmlns:xlink="http://www.w3.org/1999/xlink" version="1.1" id="Layer_1" x="0px" y="0px" viewBox="0 0 512 512" style="enable-background:new 0 0 512 512;" xml:space="preserve" width="512" height="512">
<g>
	<polygon style="fill:#FFDA2D;" points="303.701,391 322.599,512 256,448.299 127.301,331 190.901,331 173.2,292.299 256,286    326.499,280.899 367.599,391  "/>
	<polygon style="fill:#FDBF00;" points="303.701,391 322.599,512 256,448.299 256,286 326.499,280.899 367.599,391  "/>
	<path style="fill:#537983;" d="M391,60c-18.6,0-36.301,4.799-51.899,12.299C319.9,41.1,290.2,17.999,256,6.899   C241.601,2.399,226.601,0,211,0C128.2,0,61,68.2,61,151v1.5c-34.2,6.899-61,37.2-61,73.5c0,41.4,34.6,75,76,75h315   c66.301,0,121-53.701,121-120C512,114.699,457.301,60,391,60z"/>
	<path style="fill:#3E5959;" d="M512,181c0,66.299-54.699,120-121,120H256V6.899c34.2,11.1,63.9,34.2,83.101,65.4   C354.699,64.799,372.4,60,391,60C457.301,60,512,114.699,512,181z"/>
</g>















</svg>
